<svg width="29" height="39" viewBox="0 0 29 39" fill="none" xmlns="http://www.w3.org/2000/svg">
<g filter="url(#filter0_di_750_5633)">
<path d="M-8.54445 19C-11.0052 19 -13.0517 16.9785 -12.48 14.5851C-12.1036 13.0096 -11.5258 11.4828 -10.7565 10.0435C-9.28359 7.28784 -7.15382 4.93799 -4.55583 3.20208C-1.95785 1.46616 1.02815 0.397752 4.13767 0.0914902C7.2472 -0.214771 10.3843 0.250568 13.271 1.44629C16.1577 2.64201 18.705 4.5312 20.6872 6.94653C22.6694 9.36185 24.0253 12.2288 24.6349 15.2933C25.2445 18.3578 25.0889 21.5254 24.1819 24.5154C23.7081 26.0772 23.037 27.5653 22.1891 28.9455C20.901 31.0422 18.0245 31.0245 16.2845 29.2845C14.5445 27.5445 14.6693 24.7171 15.4986 22.4003C15.5544 22.2446 15.6063 22.0873 15.6545 21.9286C16.1361 20.341 16.2187 18.659 15.895 17.0318C15.5714 15.4045 14.8514 13.8822 13.7988 12.5997C12.7463 11.3172 11.3937 10.314 9.86085 9.67908C8.32802 9.04416 6.66225 8.79707 5.01112 8.95969C3.35998 9.12231 1.77443 9.68963 0.394913 10.6114C-0.9846 11.5332 -2.1155 12.7809 -2.89761 14.2441C-2.97578 14.3904 -3.05022 14.5383 -3.12091 14.6878C-4.17268 16.9125 -6.08371 19 -8.54445 19Z" fill="#FFB636"/>
</g>
<defs>
<filter id="filter0_di_750_5633" x="-16.5767" y="0" width="45.5767" height="38.5563" filterUnits="userSpaceOnUse" color-interpolation-filters="sRGB">
<feFlood flood-opacity="0" result="BackgroundImageFix"/>
<feColorMatrix in="SourceAlpha" type="matrix" values="0 0 0 0 0 0 0 0 0 0 0 0 0 0 0 0 0 0 127 0" result="hardAlpha"/>
<feOffset dy="4"/>
<feGaussianBlur stdDeviation="2"/>
<feComposite in2="hardAlpha" operator="out"/>
<feColorMatrix type="matrix" values="0 0 0 0 0 0 0 0 0 0 0 0 0 0 0 0 0 0 0.25 0"/>
<feBlend mode="normal" in2="BackgroundImageFix" result="effect1_dropShadow_750_5633"/>
<feBlend mode="normal" in="SourceGraphic" in2="effect1_dropShadow_750_5633" result="shape"/>
<feColorMatrix in="SourceAlpha" type="matrix" values="0 0 0 0 0 0 0 0 0 0 0 0 0 0 0 0 0 0 127 0" result="hardAlpha"/>
<feOffset dy="4"/>
<feGaussianBlur stdDeviation="2"/>
<feComposite in2="hardAlpha" operator="arithmetic" k2="-1" k3="1"/>
<feColorMatrix type="matrix" values="0 0 0 0 0 0 0 0 0 0 0 0 0 0 0 0 0 0 0.25 0"/>
<feBlend mode="normal" in2="shape" result="effect2_innerShadow_750_5633"/>
</filter>
</defs>
</svg>
