<svg width="49" height="49" viewBox="0 0 49 49" fill="none" xmlns="http://www.w3.org/2000/svg">
<g filter="url(#filter0_di_750_5632)">
<path d="M43.9993 9.14971C42.1804 5.99927 38.1519 4.91985 35.0015 6.73876L7.29445 22.7354C4.14401 24.5543 3.06459 28.5828 4.8835 31.7332C6.70241 34.8837 10.7309 35.9631 13.8813 34.1442L41.5883 18.1475C44.7388 16.3286 45.8182 12.3002 43.9993 9.14971Z" fill="#FFB636"/>
<path d="M13.1496 0.883578C9.99919 2.70249 8.91977 6.73094 10.7387 9.88139L26.7353 37.5884C28.5542 40.7388 32.5827 41.8183 35.7331 39.9994C38.8836 38.1804 39.963 34.152 38.1441 31.0015L22.1474 3.29453C20.3285 0.14409 16.3001 -0.935331 13.1496 0.883578Z" fill="#FFB636"/>
</g>
<defs>
<filter id="filter0_di_750_5632" x="0" y="0" width="48.8828" height="48.8829" filterUnits="userSpaceOnUse" color-interpolation-filters="sRGB">
<feFlood flood-opacity="0" result="BackgroundImageFix"/>
<feColorMatrix in="SourceAlpha" type="matrix" values="0 0 0 0 0 0 0 0 0 0 0 0 0 0 0 0 0 0 127 0" result="hardAlpha"/>
<feOffset dy="4"/>
<feGaussianBlur stdDeviation="2"/>
<feComposite in2="hardAlpha" operator="out"/>
<feColorMatrix type="matrix" values="0 0 0 0 0 0 0 0 0 0 0 0 0 0 0 0 0 0 0.25 0"/>
<feBlend mode="normal" in2="BackgroundImageFix" result="effect1_dropShadow_750_5632"/>
<feBlend mode="normal" in="SourceGraphic" in2="effect1_dropShadow_750_5632" result="shape"/>
<feColorMatrix in="SourceAlpha" type="matrix" values="0 0 0 0 0 0 0 0 0 0 0 0 0 0 0 0 0 0 127 0" result="hardAlpha"/>
<feOffset dy="4"/>
<feGaussianBlur stdDeviation="2"/>
<feComposite in2="hardAlpha" operator="arithmetic" k2="-1" k3="1"/>
<feColorMatrix type="matrix" values="0 0 0 0 0 0 0 0 0 0 0 0 0 0 0 0 0 0 0.25 0"/>
<feBlend mode="normal" in2="shape" result="effect2_innerShadow_750_5632"/>
</filter>
</defs>
</svg>
