<svg width="48" height="48" viewBox="0 0 48 48" fill="none" xmlns="http://www.w3.org/2000/svg">
<path d="M10.16 12.02C10.56 10.84 11.68 10 13 10H18V8C18 6.9 18.9 6 20 6H28C29.1 6 30 6.9 30 8V10H35C36.32 10 37.42 10.84 37.84 12.02L41.78 23.36C41.92 23.78 42 24.22 42 24.68V39C42 40.66 40.66 42 39 42C37.34 42 36 40.66 36 39V38H12V39C12 40.64 10.66 42 9 42C7.36 42 6 40.66 6 39V24.68C6 24.24 6.08 23.78 6.22 23.36L10.16 12.02ZM35 32C36.66 32 38 30.66 38 29C38 27.34 36.66 26 35 26C33.34 26 32 27.34 32 29C32 30.66 33.34 32 35 32ZM13 32C14.66 32 16 30.66 16 29C16 27.34 14.66 26 13 26C11.34 26 10 27.34 10 29C10 30.66 11.34 32 13 32ZM38 22L35 13H13L10 22H38Z" fill="white"/>
</svg>
