<svg width="48" height="48" viewBox="0 0 48 48" fill="none" xmlns="http://www.w3.org/2000/svg">
<path d="M14.0001 10.4191C14.0001 9.51908 12.9201 9.07908 12.3001 9.71908L6.72008 15.2991C6.32008 15.6991 6.32008 16.3191 6.72008 16.7191L12.3001 22.2991C12.9201 22.9191 14.0001 22.4791 14.0001 21.5791V17.9991H20.0001C21.1001 17.9991 22.0001 17.0991 22.0001 15.9991C22.0001 14.8991 21.1001 13.9991 20.0001 13.9991H14.0001V10.4191ZM28.0001 13.9991C29.1001 13.9991 30.0001 14.8991 30.0001 15.9991C30.0001 17.0991 29.1001 17.9991 28.0001 17.9991C26.9001 17.9991 26.0001 17.0991 26.0001 15.9991C26.0001 14.8991 26.9001 13.9991 28.0001 13.9991ZM36.0001 13.9991C37.1001 13.9991 38.0001 14.8991 38.0001 15.9991C38.0001 17.0991 37.1001 17.9991 36.0001 17.9991C34.9001 17.9991 34.0001 17.0991 34.0001 15.9991C34.0001 14.8991 34.9001 13.9991 36.0001 13.9991ZM34.0001 33.9991H28.0001C26.9001 33.9991 26.0001 33.0991 26.0001 31.9991C26.0001 30.8991 26.9001 29.9991 28.0001 29.9991H34.0001V26.4191C34.0001 25.5191 35.0801 25.0791 35.7001 25.7191L41.2801 31.2991C41.6801 31.6991 41.6801 32.3191 41.2801 32.7191L35.7001 38.2991C35.0801 38.9191 34.0001 38.4791 34.0001 37.5791V33.9991ZM20.0001 33.9991C18.9001 33.9991 18.0001 33.0991 18.0001 31.9991C18.0001 30.8991 18.9001 29.9991 20.0001 29.9991C21.1001 29.9991 22.0001 30.8991 22.0001 31.9991C22.0001 33.0991 21.1001 33.9991 20.0001 33.9991ZM12.0001 33.9991C10.9001 33.9991 10.0001 33.0991 10.0001 31.9991C10.0001 30.8991 10.9001 29.9991 12.0001 29.9991C13.1001 29.9991 14.0001 30.8991 14.0001 31.9991C14.0001 33.0991 13.1001 33.9991 12.0001 33.9991Z" fill="white"/>
</svg>
