<svg width="48" height="48" viewBox="0 0 48 48" fill="none" xmlns="http://www.w3.org/2000/svg">
<path d="M4.20098 9.99921H12.001V3.99921C12.001 2.89921 12.901 1.99921 14.001 1.99921C15.101 1.99921 16.001 2.89921 16.001 3.99921V9.99921H23.801C24.981 9.99921 25.901 11.0192 25.801 12.1992L25.561 14.6192C18.201 16.3192 12.001 21.5392 12.001 29.9992L11.961 45.9992H8.56098C6.88098 45.9992 5.50098 44.6992 5.30098 43.0592L2.22098 12.1992C2.10098 11.0192 3.02098 9.99921 4.20098 9.99921ZM18.001 41.9992H44.001C45.101 41.9992 46.001 42.8992 46.001 43.9992C46.001 45.0992 45.101 45.9992 44.001 45.9992H18.001C16.901 45.9992 16.001 45.0992 16.001 43.9992C16.001 42.8992 16.901 41.9992 18.001 41.9992ZM43.801 29.9992H18.201C16.961 29.9992 15.981 28.8792 16.221 27.6792C17.521 21.2192 24.261 17.9792 31.001 17.9792C37.741 17.9792 44.461 21.2192 45.781 27.6792C46.021 28.8792 45.021 29.9992 43.801 29.9992ZM18.001 33.9992H44.001C45.101 33.9992 46.001 34.8992 46.001 35.9992C46.001 37.0992 45.101 37.9992 44.001 37.9992H18.001C16.901 37.9992 16.001 37.0992 16.001 35.9992C16.001 34.8992 16.901 33.9992 18.001 33.9992Z" fill="white"/>
</svg>
